<svg aria-hidden="true" style="width:0;height:0;position:absolute;overflow:hidden" xmlns="http://www.w3.org/2000/svg"><defs><symbol id="icon-film" viewBox="0 0 31 32"><path fill="none" stroke="#fff" style="stroke:var(--color1,#fff)" stroke-linejoin="round" stroke-linecap="round" stroke-width="1.561" d="M25.783 2.992H5.438a2.836 2.836 0 0 0-2.836 2.836v20.345a2.836 2.836 0 0 0 2.836 2.835v0h20.345a2.835 2.835 0 0 0 2.835-2.835V5.828a2.836 2.836 0 0 0-2.835-2.836v0zm-16.678 0v26.016M22.114 2.992v26.016M2.601 16h26.016M2.602 9.496h6.504M2.602 22.504h6.504m13.008 0h6.504M22.114 9.496h6.504"/></symbol><symbol id="icon-search" viewBox="0 0 32 32"><path stroke-linejoin="round" stroke-linecap="round" stroke-width="2" d="M14.666 25.334c5.891 0 10.667-4.776 10.667-10.667S20.557 4 14.666 4 3.999 8.776 3.999 14.667s4.776 10.667 10.667 10.667zM28 28l-5.8-5.8"/></symbol><symbol id="icon-video-camera" viewBox="0 0 32 32"><path d="M12 9a5 5 0 1 1 10.001.001A5 5 0 0 1 12 9zM0 9a5 5 0 1 1 10.001.001A5 5 0 0 1 0 9zm24 10v-3c0-1.1-.9-2-2-2H2c-1.1 0-2 .9-2 2v10c0 1.1.9 2 2 2h20c1.1 0 2-.9 2-2v-3l8 5V14l-8 5zm-4 5H4v-6h16v6z"/></symbol></defs></svg>